<mxfile host="app.diagrams.net" modified="2022-05-30T08:03:20.680Z" agent="5.0 (Windows NT 10.0; Win64; x64) AppleWebKit/537.36 (KHTML, like Gecko) Chrome/102.0.5005.61 Safari/537.36" etag="ZGwIQ71XB6EwzNut8uxm" version="18.1.3" type="github">
  <diagram id="YVmNv48VYtaEa-Qu43L8" name="Page-1">
    <mxGraphModel dx="965" dy="597" grid="1" gridSize="10" guides="1" tooltips="1" connect="1" arrows="1" fold="1" page="1" pageScale="1" pageWidth="850" pageHeight="1100" math="0" shadow="0">
      <root>
        <mxCell id="0" />
        <mxCell id="1" parent="0" />
      </root>
    </mxGraphModel>
  </diagram>
</mxfile>
